<svg width="29" height="29" viewBox="0 0 29 29" fill="none" xmlns="http://www.w3.org/2000/svg">
<path d="M0 2.07308C0 0.940265 0.962891 3.05176e-05 2.15234 3.05176e-05H26.8477C28.0371 3.05176e-05 29 0.928937 29 2.07308V26.927C29 28.0598 28.0371 29 26.8477 29H2.15234C0.962891 29 0 28.0711 0 26.927V2.07308Z" fill="#006699"/>
<path d="M8.81323 24.2649V11.2149H4.47456V24.2649H8.81323ZM6.64956 9.42504C8.1562 9.42504 9.09644 8.42816 9.09644 7.17074C9.07378 5.89066 8.1562 4.91644 6.68355 4.91644C5.19956 4.91644 4.22534 5.89066 4.22534 7.18207C4.22534 8.42816 5.16558 9.43637 6.6269 9.43637H6.64956V9.42504ZM11.2148 24.2649H15.5535V16.9922C15.5535 16.5957 15.5875 16.1993 15.7007 15.9274C16.0066 15.1571 16.7203 14.3414 17.921 14.3414C19.4957 14.3414 20.1187 15.5422 20.1187 17.2868V24.2762H24.4687V16.7996C24.4687 12.7895 22.3277 10.909 19.4843 10.909C18.6875 10.8782 17.8976 11.0683 17.202 11.4581C16.5063 11.8479 15.9319 12.4223 15.5421 13.118H15.5648V11.2149H11.2148C11.2714 12.4383 11.2148 24.2649 11.2148 24.2649Z" fill="white"/>
</svg>
